<svg xmlns="http://www.w3.org/2000/svg" width="1440" height="900" viewBox="0 0 1440 900">
  <!-- Background gradient -->
  <defs>
    <linearGradient id="grad1" x1="0%" y1="0%" x2="100%" y2="100%">
      <stop offset="0%" style="stop-color:#4f46e5;stop-opacity:0.8" />
      <stop offset="100%" style="stop-color:#7e22ce;stop-opacity:0.8" />
    </linearGradient>
  </defs>
  
  <!-- Background rectangle -->
  <rect width="100%" height="100%" fill="url(#grad1)" />
  
  <!-- Radio wave patterns -->
  <g opacity="0.1" fill="none" stroke="#ffffff" stroke-width="2">
    <!-- Large waves -->
    <circle cx="200" cy="450" r="100" />
    <circle cx="200" cy="450" r="150" />
    <circle cx="200" cy="450" r="200" />
    
    <!-- Medium waves -->
    <circle cx="1200" cy="250" r="80" />
    <circle cx="1200" cy="250" r="120" />
    <circle cx="1200" cy="250" r="160" />
    
    <!-- Small waves -->
    <circle cx="800" cy="700" r="60" />
    <circle cx="800" cy="700" r="90" />
    <circle cx="800" cy="700" r="120" />
  </g>
  
  <!-- Abstract music elements -->
  <g opacity="0.15" fill="#ffffff">
    <!-- Music notes -->
    <circle cx="400" cy="200" r="10" />
    <rect x="400" y="210" width="3" height="40" />
    <rect x="400" y="210" width="25" height="3" />
    
    <circle cx="1000" cy="400" r="10" />
    <rect x="1000" y="410" width="3" height="40" />
    <rect x="1000" y="410" width="25" height="3" />
    
    <circle cx="600" cy="600" r="10" />
    <rect x="600" y="610" width="3" height="40" />
    <rect x="600" y="610" width="25" height="3" />
    
    <!-- Sound bars -->
    <rect x="100" cy="100" width="5" height="20" />
    <rect x="110" cy="100" width="5" height="40" />
    <rect x="120" cy="100" width="5" height="30" />
    <rect x="130" cy="100" width="5" height="50" />
    <rect x="140" cy="100" width="5" height="25" />
    
    <rect x="1300" cy="800" width="5" height="20" />
    <rect x="1310" cy="800" width="5" height="40" />
    <rect x="1320" cy="800" width="5" height="30" />
    <rect x="1330" cy="800" width="5" height="50" />
    <rect x="1340" cy="800" width="5" height="25" />
  </g>
</svg>